HIERARCHY
ROOT Hips
{
    OFFSET 0.000000 0.000000 0.000000
    CHANNELS 6 Xposition Yposition Zposition Zrotation Xrotation Yrotation
    JOINT Spine
    {
        OFFSET -0.000000 14.517291 0.000000
        CHANNELS 3 Zrotation Xrotation Yrotation
        JOINT Spine1
        {
            OFFSET -0.000000 37.558300 0.000000
            CHANNELS 3 Zrotation Xrotation Yrotation
            JOINT Neck
            {
                OFFSET -0.000000 37.404057 3.400369
                CHANNELS 3 Zrotation Xrotation Yrotation
                JOINT Head
                {
                    OFFSET -0.000000 24.785618 -3.540803
                    CHANNELS 3 Zrotation Xrotation Yrotation
                    End Site
                    {
                        OFFSET -0.000000 35.408028 0.000000
                    }
                }
            }
            JOINT LeftShoulder
            {
                OFFSET 6.992933 33.973492 -0.192664
                CHANNELS 3 Zrotation Xrotation Yrotation
                JOINT LeftArm
                {
                    OFFSET 21.527611 0.000000 0.000000
                    CHANNELS 3 Zrotation Xrotation Yrotation
                    JOINT LeftForeArm
                    {
                        OFFSET 56.353916 0.000000 0.000000
                        CHANNELS 3 Zrotation Xrotation Yrotation
                        JOINT LeftHand
                        {
                            OFFSET 47.774071 0.000000 0.000000
                            CHANNELS 3 Zrotation Xrotation Yrotation
                            End Site
                            {
                                OFFSET 26.556021 0.000000 0.000000
                            }
                        }
                    }
                }
            }
            JOINT RightShoulder
            {
                OFFSET -7.065357 33.973492 -0.192664
                CHANNELS 3 Zrotation Xrotation Yrotation
                JOINT RightArm
                {
                    OFFSET -21.527611 0.000000 0.000000
                    CHANNELS 3 Zrotation Xrotation Yrotation
                    JOINT RightForeArm
                    {
                        OFFSET -56.353916 0.000000 0.000000
                        CHANNELS 3 Zrotation Xrotation Yrotation
                        JOINT RightHand
                        {
                            OFFSET -47.774071 0.000000 0.000000
                            CHANNELS 3 Zrotation Xrotation Yrotation
                            End Site
                            {
                                OFFSET -26.556021 0.000000 0.000000
                            }
                        }
                    }
                }
            }
        }
    }
    JOINT LeftUpLeg
    {
        OFFSET 17.704014 0.000000 0.000000
        CHANNELS 3 Zrotation Xrotation Yrotation
        JOINT LeftLeg
        {
            OFFSET -0.000000 -81.181816 0.000000
            CHANNELS 3 Zrotation Xrotation Yrotation
            JOINT LeftFoot
            {
                OFFSET -0.000000 -62.821102 0.000000
                CHANNELS 3 Zrotation Xrotation Yrotation
                JOINT LeftToeBase
                {
                    OFFSET -0.000000 -11.507608 26.556021
                    CHANNELS 3 Zrotation Xrotation Yrotation
                    End Site
                    {
                        OFFSET -0.000000 0.000000 7.081605
                    }
                }
            }
        }
    }
    JOINT RightUpLeg
    {
        OFFSET -17.704014 0.000000 0.000000
        CHANNELS 3 Zrotation Xrotation Yrotation
        JOINT RightLeg
        {
            OFFSET -0.000000 -81.181816 0.000000
            CHANNELS 3 Zrotation Xrotation Yrotation
            JOINT RightFoot
            {
                OFFSET -0.000000 -62.821102 0.000000
                CHANNELS 3 Zrotation Xrotation Yrotation
                JOINT RightToeBase
                {
                    OFFSET -0.000000 -11.507608 26.556021
                    CHANNELS 3 Zrotation Xrotation Yrotation
                    End Site
                    {
                        OFFSET -0.000000 0.000000 7.081605
                    }
                }
            }
        }
    }
}
MOTION
Frames:    7
Frame Time:    0.008333
29.207685    165.406677    1.290804    1.225564    0.782215    -45.175701    1.137608    -1.770270    -1.467532    3.432445    1.142731    -0.529764    17.928101    0.112362    16.071980    -13.610624    5.797042    12.844024    13.383707    -2.070520    -20.266371    -7.223612    -20.172049    -42.574131    12.605263    -38.217682    -11.997783    -27.877741    -26.118082    -48.982189    -7.181970    2.958147    -0.956278    34.610954    5.981127    79.604118    10.120164    1.909147    106.454475    4.264895    -10.918529    19.838331    5.427341    -6.267018    -0.099419    -8.747637    7.985758    -5.449901    0.388645    -2.300883    37.360970    0.000000    0.000000    0.000000    -2.541399    -4.283570    0.854790    6.872552    12.949484    -1.131033    -2.826829    -8.117001    -18.412127    0.000000    0.000000    0.000000    
29.063934    165.393326    1.199076    1.209049    0.770511    -45.121731    1.126763    -1.800753    -1.475999    3.411942    1.142818    -0.532415    17.915411    0.107152    16.069593    -13.574860    5.883546    12.856163    13.383249    -2.075944    -20.300278    -7.206222    -20.194332    -42.590824    12.595201    -38.229450    -11.971909    -27.856396    -26.147976    -48.969341    -7.199539    2.934928    -0.961944    34.612480    5.973649    79.609200    10.141598    1.894287    106.406761    4.268192    -10.950307    19.821701    5.473052    -6.216149    -0.050049    -8.706751    7.936838    -5.489743    0.315270    -2.314403    37.328064    0.000000    0.000000    0.000000    -2.512095    -4.196013    0.820343    6.934725    12.851057    -1.164480    -2.912613    -8.116820    -18.361183    0.000000    0.000000    0.000000    
28.919920    165.381500    1.105737    1.196461    0.773170    -45.062145    1.110736    -1.853741    -1.495190    3.403041    1.163163    -0.539463    17.911312    0.087159    16.063089    -13.551922    5.977824    12.860011    13.390697    -2.088188    -20.294107    -7.214329    -20.207876    -42.639236    12.601111    -38.210052    -11.948490    -27.832001    -26.143515    -48.950294    -7.229316    2.924467    -0.967317    34.635601    5.952667    79.622742    10.108729    1.830695    106.374016    4.403768    -10.938429    19.789282    5.530690    -6.176501    -0.053365    -8.680150    7.879443    -5.498960    0.236761    -2.337095    37.309872    0.000000    0.000000    0.000000    -2.463557    -4.111777    0.791751    6.976766    12.730959    -1.180266    -2.990370    -8.092987    -18.342983    0.000000    0.000000    0.000000    
28.779730    165.376129    1.026169    1.173270    0.766647    -45.014603    1.086590    -1.894847    -1.501804    3.419641    1.180759    -0.542347    17.852106    0.063435    16.046785    -13.469741    6.064936    12.865721    13.373626    -2.076180    -20.297569    -7.243683    -20.303484    -42.701481    12.541843    -38.136299    -11.948400    -27.799026    -26.080696    -48.945412    -7.262053    2.929672    -0.980727    34.637772    5.941108    79.637360    10.087098    1.759692    106.375465    4.396403    -10.980050    19.805758    5.587923    -6.122011    -0.083639    -8.661237    7.823659    -5.461088    0.168922    -2.350196    37.269753    0.000000    0.000000    0.000000    -2.404433    -4.016680    0.755742    6.985227    12.622836    -1.180316    -3.045375    -8.079171    -18.324940    0.000000    0.000000    0.000000    
28.632454    165.372299    0.955828    1.148061    0.759454    -44.963444    1.068758    -1.954495    -1.509038    3.420531    1.229936    -0.546389    17.801394    0.033033    16.036369    -13.381127    6.133365    12.873481    13.372556    -2.110580    -20.295008    -7.276495    -20.316654    -42.755135    12.529270    -38.110901    -11.948586    -27.804434    -26.049328    -48.949730    -7.291867    2.921762    -0.993091    34.656696    5.940337    79.638863    10.053255    1.671267    106.403091    4.442183    -11.020965    19.796299    5.643886    -6.062551    -0.113347    -8.640796    7.769567    -5.442173    0.098885    -2.359111    37.243504    0.000000    0.000000    0.000000    -2.337914    -3.908974    0.714234    6.979370    12.502548    -1.158360    -3.102653    -8.060236    -18.316416    0.000000    0.000000    0.000000    
28.499353    165.374893    0.894852    1.130105    0.755915    -44.922798    1.050392    -2.006098    -1.494090    3.436906    1.253705    -0.542331    17.761662    -0.007223    16.025707    -13.322582    6.221298    12.877327    13.338725    -2.138677    -20.316568    -7.311049    -20.353966    -42.810555    12.486269    -38.063042    -11.961867    -27.798250    -25.995461    -48.967209    -7.336052    2.917039    -1.022796    34.702805    5.947344    79.637955    10.010705    1.610585    106.423607    4.427912    -11.030279    19.811008    5.685537    -6.020070    -0.168103    -8.612342    7.729626    -5.404352    0.027522    -2.377506    37.241852    0.000000    0.000000    0.000000    -2.271170    -3.816411    0.669837    6.957606    12.390057    -1.129956    -3.152838    -8.023096    -18.319756    0.000000    0.000000    0.000000    
28.366625    165.375275    0.834054    1.104760    0.746064    -44.881748    1.038354    -2.044575    -1.495171    3.430046    1.280973    -0.543540    17.747017    -0.038400    16.029196    -13.279784    6.287080    12.889617    13.327479    -2.156748    -20.326330    -7.312999    -20.341284    -42.843079    12.495318    -38.077106    -11.965297    -27.818789    -26.001471    -48.966305    -7.345094    2.909940    -1.037815    34.721130    5.966124    79.645142    9.949813    1.512640    106.453659    4.406816    -11.056375    19.792994    5.730504    -5.969584    -0.235845    -8.588400    7.692366    -5.375597    -0.046210    -2.395633    37.252998    0.000000    0.000000    0.000000    -2.194421    -3.704782    0.612497    6.914592    12.260772    -1.105870    -3.184888    -7.996146    -18.301973    0.000000    0.000000    0.000000    
